<svg width="0" height="0" class="hidden">
  <symbol version="1.1" xmlns="http://www.w3.org/2000/svg" xmlns:xlink="http://www.w3.org/1999/xlink" viewBox="-5 0 20 20" id="bookmark-fill-1227-svgrepo-com">
    <title>bookmark_fill [#1227]</title>
    <desc>Created with Sketch.</desc>
    <defs></defs>
    <g id="Page-1" stroke="none" stroke-width="1" fill="none" fill-rule="evenodd">
      <g id="Dribbble-Light-Preview" transform="translate(-265.000000, -2679.000000)" fill="#000000">
        <g id="icons" transform="translate(56.000000, 160.000000)">
          <path d="M219,2521 L219,2537.998 C219,2538.889 217.923,2539.335 217.293,2538.705 L214.707,2536.119 C214.317,2535.729 213.683,2535.729 213.293,2536.119 L210.707,2538.705 C210.077,2539.335 209,2538.889 209,2537.998 L209,2521 C209,2519.895 209.895,2519 211,2519 L217,2519 C218.105,2519 219,2519.895 219,2521" id="bookmark_fill-[#1227]"></path>
        </g>
      </g>
    </g>
  </symbol>
  <symbol fill="#000000" xmlns="http://www.w3.org/2000/svg" viewBox="0 0 58.568 58.568" id="flight-plane-svgrepo-com">
    <path id="flight_plane" d="M1023.994,672.006c2.4-3.218,3.843-6.559,3.85-8.946a3.323,3.323,0,0,0-.453-1.828,1.706,1.706,0,0,0-.578-.584,3.265,3.265,0,0,0-1.852-.466c-2.381,0-5.723,1.442-8.942,3.849a77.166,77.166,0,0,0-8.806,8.487q-.917.966-1.934,2.031l-6.976-2.091.02-.02a1.566,1.566,0,0,0-.005-2.2l-1.259-1.261a1.571,1.571,0,0,0-1.11-.461,1.541,1.541,0,0,0-1.1.458l-1.885,1.886-1-.3a1.563,1.563,0,0,0-.125-2.063l-1.266-1.265a1.568,1.568,0,0,0-1.109-.457,1.534,1.534,0,0,0-1.1.458l-1.73,1.73-7.094-2.125a1.775,1.775,0,0,0-.507-.072,1.875,1.875,0,0,0-1.311.531l-2.494,2.494a1.463,1.463,0,0,0-.439,1.029,1.433,1.433,0,0,0,.761,1.284l14.918,8.334a2.607,2.607,0,0,1,.362.275l4.253,4.252c-3.978,4.191-7.522,8.25-10.284,11.781-.258.328-.5.649-.742.965l-11.541-1.048a1.573,1.573,0,0,0-.2-.012,2.127,2.127,0,0,0-1.429.591l-1.163,1.161a1.449,1.449,0,0,0-.446,1.029,1.418,1.418,0,0,0,.839,1.3l8.119,3.857a1.843,1.843,0,0,1,.311.223l.674.668a4.938,4.938,0,0,0-.325,1.561,2.053,2.053,0,0,0,.567,1.5l.029.026.008.005a2.056,2.056,0,0,0,1.493.56,4.964,4.964,0,0,0,1.548-.322l.684.682a1.956,1.956,0,0,1,.212.3l3.848,8.1a1.435,1.435,0,0,0,1.294.851h.008a1.446,1.446,0,0,0,1.026-.432l1.192-1.2a2.132,2.132,0,0,0,.569-1.426c0-.066,0-.117-.005-.144l-1.051-11.581c.317-.238.636-.484.965-.739,3.536-2.766,7.6-6.313,11.779-10.286l4.256,4.26a2.314,2.314,0,0,1,.278.365l8.318,14.891a1.451,1.451,0,0,0,2.322.342l2.512-2.51a1.9,1.9,0,0,0,.514-1.31,1.769,1.769,0,0,0-.069-.491l-2.125-7.095,1.729-1.733a1.563,1.563,0,0,0,0-2.205l-1.268-1.267a1.559,1.559,0,0,0-2.062-.129l-.3-.995,1.887-1.886a1.577,1.577,0,0,0,.455-1.107,1.54,1.54,0,0,0-.455-1.1l-1.262-1.262a1.563,1.563,0,0,0-2.217,0l-.013.012-2.089-6.976q1.082-1.032,2.062-1.96C1019.32,677.193,1022.053,674.6,1023.994,672.006Z" transform="translate(-969.276 -660.182)"></path>
  </symbol>
  <symbol fill="#000000" version="1.1" id="home-filled-svgrepo-com" xmlns="http://www.w3.org/2000/svg" xmlns:xlink="http://www.w3.org/1999/xlink" x="0px" y="0px" enable-background="new 0 0 24 24" xml:space="preserve" viewBox="0 0 24 24">
    <g id="Home-Filled">
      <path d="M22.68,11.36L12,2.61L1.32,11.36L0.05,9.81L12,0.03l11.95,9.78L22.68,11.36z"></path>
      <path d="M20,8v1v14h-5v-8H9v8H4v-6.58V9V8l8-6.68L20,8z"></path>
    </g>
  </symbol>
  <symbol fill="#000000" xmlns="http://www.w3.org/2000/svg" viewBox="0 0 512 512" id="key-sharp-svgrepo-com">
    <title>ionicons-v5-o</title>
    <path d="M218.1,167.2c0,13,0,25.6,4.1,37.4C179.1,255.2,54.7,399.1,54.7,399.1l2.9,36.3s34.8,33,40,28c15.4-15,24.8-25.2,24.8-25.2l7.24-43.35,47.11-3.47,3.78-46.8,49.63-.95.49-50.09,52.69,2.1,9-18.84c15.5,6.7,29.6,9.4,47.7,9.4,68.5,0,124-53.4,124-119.2S408.5,48,340,48,218.1,101.4,218.1,167.2ZM406.85,144A38.85,38.85,0,1,1,368,105.15,38.81,38.81,0,0,1,406.85,144Z"></path>
  </symbol>
  <symbol version="1.1" xmlns="http://www.w3.org/2000/svg" xmlns:xlink="http://www.w3.org/1999/xlink" viewBox="0 0 512 512" id="location-filled-svgrepo-com">
    <title>location-filled</title>
    <g id="Page-1" stroke="none" stroke-width="1" fill="none" fill-rule="evenodd">
      <g id="location-outline" fill="#000000" transform="translate(106.666667, 42.666667)">
        <path d="M149.333333,7.10542736e-15 C231.807856,7.10542736e-15 298.666667,66.8588107 298.666667,149.333333 C298.666667,176.537017 291.413333,202.026667 278.683512,224.008666 C270.196964,238.663333 227.080238,313.32711 149.333333,448 C71.5864284,313.32711 28.4697022,238.663333 19.9831547,224.008666 C7.25333333,202.026667 2.84217094e-14,176.537017 2.84217094e-14,149.333333 C2.84217094e-14,66.8588107 66.8588107,7.10542736e-15 149.333333,7.10542736e-15 Z M149.333333,85.3333333 C113.987109,85.3333333 85.3333333,113.987109 85.3333333,149.333333 C85.3333333,184.679557 113.987109,213.333333 149.333333,213.333333 C184.679557,213.333333 213.333333,184.679557 213.333333,149.333333 C213.333333,113.987109 184.679557,85.3333333 149.333333,85.3333333 Z" id="Combined-Shape"></path>
      </g>
    </g>
  </symbol>
  <symbol fill="none" xmlns="http://www.w3.org/2000/svg" viewBox="0 0 24 24" id="map-svgrepo-com">
    <path d="M3 8.70938C3 7.23584 3 6.49907 3.39264 6.06935C3.53204 5.91678 3.70147 5.79466 3.89029 5.71066C4.42213 5.47406 5.12109 5.70705 6.51901 6.17302C7.58626 6.52877 8.11989 6.70665 8.6591 6.68823C8.85714 6.68147 9.05401 6.65511 9.24685 6.60952C9.77191 6.48541 10.2399 6.1734 11.176 5.54937L12.5583 4.62778C13.7574 3.82843 14.3569 3.42876 15.0451 3.3366C15.7333 3.24444 16.4168 3.47229 17.7839 3.92799L18.9487 4.31624C19.9387 4.64625 20.4337 4.81126 20.7169 5.20409C21 5.59692 21 6.11871 21 7.16229V15.2907C21 16.7642 21 17.501 20.6074 17.9307C20.468 18.0833 20.2985 18.2054 20.1097 18.2894C19.5779 18.526 18.8789 18.293 17.481 17.827C16.4137 17.4713 15.8801 17.2934 15.3409 17.3118C15.1429 17.3186 14.946 17.3449 14.7532 17.3905C14.2281 17.5146 13.7601 17.8266 12.824 18.4507L11.4417 19.3722C10.2426 20.1716 9.64311 20.5713 8.95493 20.6634C8.26674 20.7556 7.58319 20.5277 6.21609 20.072L5.05132 19.6838C4.06129 19.3538 3.56627 19.1888 3.28314 18.7959C3 18.4031 3 17.8813 3 16.8377V8.70938Z" stroke="#1C274C" stroke-width="1.5"></path>
    <path d="M9 6.63867V20.5" stroke="#1C274C" stroke-width="1.5"></path>
    <path d="M15 3V17" stroke="#1C274C" stroke-width="1.5"></path>
  </symbol>
  <symbol fill="#000000" xmlns="http://www.w3.org/2000/svg" preserveAspectRatio="xMinYMin" viewBox="-2 -2.5 24 24" id="messages-f-svgrepo-com">
    <path d="M3.656 17.979A1 1 0 0 1 2 17.243V15a2 2 0 0 1-2-2V6a2 2 0 0 1 2-2h11a2 2 0 0 1 2 2v7a2 2 0 0 1-2 2H8.003l-4.347 2.979zM16 10.017a7.136 7.136 0 0 0 0 .369v-.37c.005-.107.006-1.447.004-4.019a3 3 0 0 0-3-2.997H5V2a2 2 0 0 1 2-2h11a2 2 0 0 1 2 2v7a2 2 0 0 1-2 2v2.243a1 1 0 0 1-1.656.736L16 13.743v-3.726z"></path>
  </symbol>
  <symbol fill="#000000" version="1.1" id="next-svgrepo-com" xmlns="http://www.w3.org/2000/svg" xmlns:xlink="http://www.w3.org/1999/xlink" xml:space="preserve" viewBox="0 0 24 24">
    <g id="next">
      <g>
        <polygon points="6.8,23.7 5.4,22.3 15.7,12 5.4,1.7 6.8,0.3 18.5,12 		"></polygon>
      </g>
    </g>
  </symbol>
  <symbol fill="none" xmlns="http://www.w3.org/2000/svg" viewBox="0 0 24 24" id="search-magnifying-glass-svgrepo-com">
    <g id="Interface / Search_Magnifying_Glass">
      <path id="Vector" d="M15 15L21 21M10 17C6.13401 17 3 13.866 3 10C3 6.13401 6.13401 3 10 3C13.866 3 17 6.13401 17 10C17 13.866 13.866 17 10 17Z" stroke="#000000" stroke-width="2" stroke-linecap="round" stroke-linejoin="round"></path>
    </g>
  </symbol>
  <symbol xmlns="http://www.w3.org/2000/svg" viewBox="0 0 24 24" id="star-f-svgrepo-com">
    <path d="M23.632 9.201a.628.628 0 0 1-.22.678l-5.726 4.96 1.727 7.394a.606.606 0 0 1-.935.676l-6.503-3.953-6.503 3.953a.713.713 0 0 1-.374.112.57.57 0 0 1-.34-.109.629.629 0 0 1-.222-.679l1.729-7.393L.539 9.879A.607.607 0 0 1 .897 8.78l7.536-.635 2.965-7.083a.62.62 0 0 1 1.155.001l2.965 7.082 7.536.635a.63.63 0 0 1 .578.42z"></path>
    <path fill="none" d="M0 0h24v24H0z"></path>
  </symbol>
</svg>